<?xml version="1.0" standalone="no"?>
<!DOCTYPE svg PUBLIC "-//W3C//DTD SVG 20010904//EN"
 "http://www.w3.org/TR/2001/REC-SVG-20010904/DTD/svg10.dtd">
<svg version="1.0" xmlns="http://www.w3.org/2000/svg"
 width="700.000000pt" height="700.000000pt" viewBox="0 0 700.000000 700.000000"
 preserveAspectRatio="xMidYMid meet">
<metadata>
Created by potrace 1.14, written by Peter Selinger 2001-2017
</metadata>
<g transform="translate(0.000000,700.000000) scale(0.100000,-0.100000)"
fill="#000000" stroke="none">
<path d="M3488 6615 c-2 -1 -68 -5 -148 -8 -80 -4 -158 -8 -175 -11 -16 -2
-59 -7 -95 -11 -36 -3 -72 -8 -80 -10 -8 -2 -35 -7 -60 -10 -25 -4 -94 -17
-155 -30 -393 -86 -763 -237 -1080 -443 -95 -61 -267 -184 -291 -206 -6 -6
-38 -33 -70 -61 -75 -62 -266 -253 -324 -324 -25 -30 -52 -62 -60 -70 -48 -51
-203 -278 -277 -406 -100 -172 -248 -519 -278 -651 -2 -10 -11 -44 -20 -74
-21 -77 -63 -275 -70 -335 -3 -27 -8 -59 -10 -70 -30 -150 -27 -648 5 -860 5
-33 11 -77 14 -97 3 -21 11 -59 17 -85 6 -27 13 -59 15 -73 16 -83 78 -288
121 -400 46 -120 57 -144 133 -295 230 -457 580 -848 1020 -1142 41 -27 82
-53 90 -57 24 -11 57 -31 71 -43 22 -18 266 -137 369 -181 250 -104 579 -196
815 -227 17 -3 62 -9 100 -14 232 -33 840 -36 980 -6 11 3 38 7 60 9 192 21
417 83 609 168 78 34 120 55 261 132 47 26 47 26 8 74 -40 49 -184 196 -243
247 -19 17 -122 104 -228 193 -106 90 -221 189 -255 221 -34 33 -76 72 -93 87
-299 278 -504 392 -864 484 -104 27 -451 103 -525 116 -124 21 -489 129 -569
169 -16 8 -34 15 -39 15 -52 0 -237 257 -337 466 -111 233 -153 449 -154 794
-1 408 74 741 201 898 19 23 38 42 43 42 9 0 117 -148 155 -212 68 -114 116
-201 180 -323 230 -438 305 -563 423 -703 l45 -54 76 7 c42 4 96 9 121 11 25
2 70 6 100 9 30 2 98 7 150 10 52 3 120 8 150 10 30 2 96 7 145 10 50 3 99 8
110 10 11 2 39 4 61 4 l42 1 64 128 c36 70 96 190 135 267 100 199 143 298
143 335 0 37 -106 245 -274 542 -36 64 -117 210 -158 285 -77 142 -168 371
-168 422 0 14 9 17 48 15 239 -9 526 -114 754 -274 110 -77 352 -314 460 -450
148 -187 205 -289 243 -433 34 -130 36 -160 50 -652 5 -193 8 -231 31 -367 20
-122 48 -206 105 -323 61 -124 70 -140 142 -245 98 -144 152 -212 365 -465
176 -208 235 -280 264 -320 4 -5 18 -23 31 -40 20 -26 102 -150 132 -200 12
-20 22 -5 188 270 267 444 412 819 476 1235 21 131 26 230 26 470 0 299 -8
391 -60 665 -26 138 -125 457 -180 580 -226 511 -542 916 -952 1221 -189 141
-421 272 -648 366 -240 100 -551 190 -775 223 -20 3 -45 7 -55 9 -66 12 -206
26 -335 31 -58 3 -135 7 -172 9 -37 2 -69 2 -70 1z"/>
</g>
</svg>
